<svg xmlns="http://www.w3.org/2000/svg" width="960" height="420" viewBox="0 0 960 420">
  <rect width="960" height="420" fill="#f8fafc"/>
  <g fill="#0f172a" font-family="Consolas, monospace" font-size="18">
    <text x="40" y="44">soff C++ rewrite architecture</text>
  </g>
  <g fill="#ffffff" stroke="#334155" stroke-width="2" font-family="Consolas, monospace" font-size="15">
    <rect x="40" y="80" width="180" height="70" rx="6"/>
    <text x="70" y="122" fill="#0f172a">IDA plugin shell</text>
    <rect x="280" y="80" width="180" height="70" rx="6"/>
    <text x="317" y="112" fill="#0f172a">IDA adapter</text>
    <text x="307" y="132" fill="#0f172a">SDK 9.3 boundary</text>
    <rect x="520" y="80" width="180" height="70" rx="6"/>
    <text x="560" y="112" fill="#0f172a">snapshot</text>
    <text x="553" y="132" fill="#0f172a">feature model</text>
    <rect x="740" y="80" width="180" height="70" rx="6"/>
    <text x="784" y="112" fill="#0f172a">SQLite</text>
    <text x="772" y="132" fill="#0f172a">repository</text>
    <rect x="280" y="220" width="180" height="70" rx="6"/>
    <text x="326" y="252" fill="#0f172a">heuristics</text>
    <text x="319" y="272" fill="#0f172a">match engine</text>
    <rect x="520" y="220" width="180" height="70" rx="6"/>
    <text x="558" y="252" fill="#0f172a">result model</text>
    <text x="552" y="272" fill="#0f172a">postprocess</text>
    <rect x="740" y="220" width="180" height="70" rx="6"/>
    <text x="795" y="252" fill="#0f172a">IDA UI</text>
    <text x="774" y="272" fill="#0f172a">choosers/actions</text>
  </g>
  <g stroke="#2563eb" stroke-width="2" fill="none" marker-end="url(#arrow)">
    <path d="M220 115 H280"/>
    <path d="M460 115 H520"/>
    <path d="M700 115 H740"/>
    <path d="M830 150 V220"/>
    <path d="M740 255 H700"/>
    <path d="M520 255 H460"/>
    <path d="M370 220 V150"/>
  </g>
  <defs>
    <marker id="arrow" viewBox="0 0 10 10" refX="8" refY="5" markerWidth="6" markerHeight="6" orient="auto-start-reverse">
      <path d="M 0 0 L 10 5 L 0 10 z" fill="#2563eb"/>
    </marker>
  </defs>
</svg>
